<?xml version="1.0" encoding="UTF-8" standalone="no"?>
<!-- Generator: Adobe Illustrator 22.1.0, SVG Export Plug-In . SVG Version: 6.00 Build 0)  -->

<svg
   version="1.1"
   id="Layer_1"
   x="0px"
   y="0px"
   viewBox="0 0 54 24"
   xml:space="preserve"
   sodipodi:docname="fpmi.svg"
   width="54"
   height="24"
   inkscape:version="1.2.2 (b0a8486541, 2022-12-01)"
   xmlns:inkscape="http://www.inkscape.org/namespaces/inkscape"
   xmlns:sodipodi="http://sodipodi.sourceforge.net/DTD/sodipodi-0.dtd"
   xmlns="http://www.w3.org/2000/svg"
   xmlns:svg="http://www.w3.org/2000/svg"><defs
   id="defs77" /><sodipodi:namedview
   id="namedview75"
   pagecolor="#ffffff"
   bordercolor="#000000"
   borderopacity="0.25"
   inkscape:showpageshadow="2"
   inkscape:pageopacity="0.0"
   inkscape:pagecheckerboard="0"
   inkscape:deskcolor="#d1d1d1"
   showgrid="false"
   inkscape:zoom="6.2151899"
   inkscape:cx="27.03055"
   inkscape:cy="39.5"
   inkscape:window-width="1280"
   inkscape:window-height="736"
   inkscape:window-x="0"
   inkscape:window-y="0"
   inkscape:window-maximized="1"
   inkscape:current-layer="Layer_1" />
<style
   type="text/css"
   id="style60">
	.st0{fill:#FFFFFF;}
</style>
<g
   id="g72"
   transform="translate(0,-27.4)">
	<path
   class="st0"
   d="m 12.7,36.5 v 6.1 h 0.2 c 0.9,0 1.6,-0.3 2.1,-0.8 0.5,-0.6 0.8,-1.3 0.8,-2.2 0,-0.9 -0.3,-1.7 -0.8,-2.2 -0.5,-0.5 -1.2,-0.8 -2.1,-0.8 h -0.2 z m -1.5,0 c -0.9,0 -1.6,0.3 -2.1,0.8 -0.5,0.5 -0.8,1.3 -0.8,2.3 0,1 0.3,1.7 0.8,2.3 0.5,0.5 1.2,0.8 2.1,0.8 h 0.2 v -6.1 h -0.2 z m 1.5,-1.1 h 0.2 c 0.8,0 1.5,0.2 2.1,0.5 0.6,0.4 1.1,0.8 1.5,1.5 0.4,0.6 0.5,1.3 0.5,2.1 0,0.8 -0.2,1.5 -0.5,2.1 -0.4,0.6 -0.8,1.1 -1.5,1.5 -0.6,0.4 -1.3,0.5 -2.1,0.5 h -0.2 v 1 h -1.3 v -1 H 11.2 C 10.4,43.6 9.7,43.4 9.1,43.1 8.5,42.7 8,42.3 7.6,41.6 7.2,41 7,40.3 7,39.5 7,38.7 7.2,38 7.5,37.4 7.9,36.8 8.4,36.3 9,35.9 c 0.6,-0.4 1.4,-0.5 2.1,-0.5 h 0.2 v -1 h 1.3 v 1 z"
   id="path62" />
	<polygon
   class="st0"
   points="19.3,35.5 19.3,44.6 18,44.6 18,34.4 25.7,34.4 25.7,44.6 24.4,44.6 24.4,35.5 "
   id="polygon64" />
	<polygon
   class="st0"
   points="40.6,42.3 45.6,34.4 47,34.4 47,44.6 45.6,44.6 45.6,36.7 40.6,44.6 39.2,44.6 39.2,34.4 40.6,34.4 "
   id="polygon66" />
	<polygon
   class="st0"
   points="32.2,39.5 29,34.4 27.3,34.4 27.3,38.7 29.1,36.4 32.2,41.4 37.3,34.4 35.7,34.4 "
   id="polygon68" />
	<polygon
   class="st0"
   points="27.3,40.4 27.3,44.6 37.4,44.6 37.4,36 32.2,43.2 29,38.1 "
   id="polygon70" />
</g>
</svg>
